<?xml version="1.0" encoding="utf-8"?>
<!-- Generator: Adobe Illustrator 19.2.1, SVG Export Plug-In . SVG Version: 6.00 Build 0)  -->
<svg version="1.1" id="Layer_1" xmlns="http://www.w3.org/2000/svg" xmlns:xlink="http://www.w3.org/1999/xlink" x="0px" y="0px"
	 viewBox="0 0 72 72" style="enable-background:new 0 0 72 72;" xml:space="preserve">
<style type="text/css">
	.st0{fill:#AED4CD;}
</style>
<path class="st0" d="M36.2,7C20.3,7,7.5,19.9,7.5,35.7c0,15.9,12.9,28.7,28.7,28.7c15.9,0,28.7-12.9,28.7-28.7
	C64.9,19.9,52,7,36.2,7z M36.2,60.7c-13.8,0-25-11.2-25-25c0-13.8,11.2-25,25-25c13.8,0,25,11.2,25,25C61.2,49.5,50,60.7,36.2,60.7z
	"/>
<path class="st0" d="M40.7,43.5c1.4,1.1,3,1.7,4.8,1.7c2.2,0,3.9-0.7,5.2-2c0.8-0.8,1.2-1.7,1.3-2.5h-3.7c-0.2,0.4-0.5,0.7-0.7,0.9
	c-0.5,0.4-1.2,0.6-2,0.6c-0.8,0-1.4-0.2-2-0.5c-0.9-0.6-1.4-1.5-1.4-2.9h10c0-1.2,0-2.1-0.1-2.7c-0.2-1.1-0.5-2-1.1-2.8
	c-0.6-0.9-1.4-1.6-2.4-2c-1-0.4-2-0.6-3.2-0.6c-2,0-3.6,0.6-4.9,1.9c-1.3,1.3-1.9,3.1-1.9,5.5C38.6,40.5,39.3,42.3,40.7,43.5z
	 M43.2,34.3c0.5-0.5,1.2-0.8,2.1-0.8c0.8,0,1.6,0.2,2.1,0.7c0.6,0.5,0.9,1.2,1,2.2h-6.2C42.4,35.6,42.7,34.9,43.2,34.3z"/>
<path class="st0" d="M33.3,44.4c0.8-0.2,1.5-0.5,2.1-0.9c0.5-0.4,1-0.9,1.3-1.5c0.6-0.9,0.8-1.9,0.8-3c0-1.1-0.2-2-0.7-2.7
	c-0.5-0.7-1.2-1.3-2.1-1.6c0.6-0.3,1.1-0.7,1.4-1.1c0.6-0.7,0.9-1.6,0.9-2.7c0-1.1-0.3-2-0.9-2.8c-0.9-1.3-2.5-1.9-4.8-2h-9v18.6
	h8.4C31.6,44.7,32.5,44.6,33.3,44.4z M26,29.3h4c0.9,0,1.6,0.1,2.2,0.3c0.7,0.3,1,0.8,1,1.7c0,0.8-0.3,1.3-0.8,1.6
	c-0.5,0.3-1.2,0.5-2,0.5H26V29.3z M26,41.5v-5h4.6c0.8,0,1.4,0.1,1.9,0.3c0.8,0.4,1.2,1,1.2,2c0,1.1-0.4,1.9-1.2,2.3
	c-0.4,0.2-1.1,0.3-1.9,0.3H26z"/>
<rect x="41.1" y="27.2" class="st0" width="8.1" height="1.9"/>
</svg>
