<?xml version="1.0" encoding="utf-8"?>
<!-- Generator: Adobe Illustrator 19.2.1, SVG Export Plug-In . SVG Version: 6.00 Build 0)  -->
<svg version="1.1" id="Layer_1" xmlns="http://www.w3.org/2000/svg" xmlns:xlink="http://www.w3.org/1999/xlink" x="0px" y="0px"
	 viewBox="0 0 72 72" style="enable-background:new 0 0 72 72;" xml:space="preserve">
<style type="text/css">
	.st0{fill:#AED4CD;}
</style>
<path class="st0" d="M36.6,7.2c-16.1,0-29.1,13-29.1,29.1s13,29.1,29.1,29.1s29.1-13,29.1-29.1S52.7,7.2,36.6,7.2z M36.6,61.6
	c-14,0-25.3-11.3-25.3-25.3S22.6,11,36.6,11s25.3,11.3,25.3,25.3C61.9,50.2,50.6,61.6,36.6,61.6z"/>
<path class="st0" d="M23.6,46.7c2.6,1.7,5.7,2.6,9,2.6c10.9,0,17.1-9.2,16.7-17.5c1.1-0.8,2.1-1.9,2.9-3c-1.1,0.5-2.2,0.8-3.4,0.9
	c1.2-0.7,2.1-1.9,2.6-3.3c-1.1,0.7-2.4,1.2-3.7,1.4c-1.1-1.1-2.6-1.9-4.3-1.9c-3.8,0-6.6,3.5-5.7,7.2c-4.9-0.2-9.2-2.6-12.1-6.1
	c-1.5,2.6-0.8,6.1,1.8,7.8c-1,0-1.9-0.3-2.7-0.7c-0.1,2.7,1.9,5.3,4.7,5.8c-0.8,0.2-1.7,0.3-2.7,0.1c0.7,2.3,2.9,4,5.5,4.1
	C29.9,46.2,26.8,47.1,23.6,46.7z"/>
</svg>
