<?xml version="1.0" encoding="utf-8"?>
<!-- Generator: Adobe Illustrator 19.2.1, SVG Export Plug-In . SVG Version: 6.00 Build 0)  -->
<svg version="1.1" id="Layer_1" xmlns="http://www.w3.org/2000/svg" xmlns:xlink="http://www.w3.org/1999/xlink" x="0px" y="0px"
	 viewBox="0 0 72 72" style="enable-background:new 0 0 72 72;" xml:space="preserve">
<style type="text/css">
	.st0{fill:#AED4CD;}
</style>
<path class="st0" d="M35.9,6.9C20.1,6.9,7.3,19.7,7.3,35.5c0,15.8,12.8,28.6,28.6,28.6c15.8,0,28.6-12.8,28.6-28.6
	C64.5,19.7,51.7,6.9,35.9,6.9z M35.9,60.4C22.1,60.4,11,49.3,11,35.5c0-13.7,11.1-24.9,24.9-24.9c13.7,0,24.9,11.1,24.9,24.9
	C60.8,49.3,49.6,60.4,35.9,60.4z"/>
<rect x="23.7" y="29.9" class="st0" width="5.5" height="17.7"/>
<ellipse class="st0" cx="26.4" cy="24.3" rx="3.2" ry="3.3"/>
<path class="st0" d="M37.9,38.3c0-2.5,1.1-4,3.3-4c2,0,3,1.4,3,4c0,2.5,0,9.3,0,9.3h5.4c0,0,0-6.5,0-11.2c0-4.7-2.7-7-6.4-7
	c-3.7,0-5.3,2.9-5.3,2.9v-2.4h-5.2v17.7h5.2C37.9,47.5,37.9,41,37.9,38.3z"/>
</svg>
