<?xml version="1.0" encoding="utf-8"?>
<!-- Generator: Adobe Illustrator 19.2.1, SVG Export Plug-In . SVG Version: 6.00 Build 0)  -->
<svg version="1.1" id="Layer_1" xmlns="http://www.w3.org/2000/svg" xmlns:xlink="http://www.w3.org/1999/xlink" x="0px" y="0px"
	 viewBox="0 0 24 25.3" style="enable-background:new 0 0 24 25.3;" xml:space="preserve">
<style type="text/css">
	.st0{fill:#5DA9AC;}
</style>
<g>
	<path class="st0" d="M15.8,5.1c0.2-0.9-0.2-2.6-1.5-2.9c-2.6-0.8-5.8,4.1-6.9,6.4C7.4,8.7,6.8,9.9,6.8,10c1,0,2.1-0.1,3-0.3
		C13.3,8.8,15.4,7.3,15.8,5.1z"/>
	<path class="st0" d="M1.7,9.5c-0.3,1-0.5,2-0.5,3.1c0,1.7,0.4,3.2,1.1,4.7c0.4-2.5,1.1-4.8,2.1-7.1C3.6,10.2,2.7,9.9,1.7,9.5z"/>
	<path class="st0" d="M5.3,8.4c1.2-2.6,3.9-5.9,6.8-6.5c0,0-0.1,0-0.1,0C7.2,1.9,3.2,5,1.8,9.3c1,0.4,1.9,0.7,2.8,0.7
		C4.8,9.5,5.1,8.9,5.3,8.4z"/>
	<path class="st0" d="M16.6,20.9c-0.6-0.2-0.9-1.1-0.8-1.8c-0.5,0.8-1,1.3-1.4,1.6c-1,0.8-1.6,0.2-2.4-1c-0.5-0.7-0.5-1.5-0.3-2.3
		c-0.8,0.9-1.8,1.9-2.1,2.2c-0.9,0.8-1.6,1.3-2.5,1.2c-1.7-0.1-2-2.6-2.4-4.5L5,16.2c1.7,0.9,4.2-1.9,3.9-3l0.3,0.1
		C9.4,14.1,8,16,6.4,16.5c0,0-0.6,0.1-0.6,0.1c2,1.4,1.7,4.5,3.7,2.8c0.4-0.4,1.8-1.9,2.8-2.9c0.9-1.4,2.5-2.7,3.3-3.4l0.2,0.2
		c-1.9,2-2.7,8.5-1.6,7.4c1.4-1.3,1.7-3.5,2.6-4.9l1.1,0.1c-0.1,0.2-0.8,4.7-0.4,4.9c0.9,0.3,2.5-2.3,2.9-4.2
		c-0.6-0.3-1.1-0.8-1.3-1.4c-0.2-0.6,0-1,0.3-1.1c0.3-0.1,0.9,0.1,1.2,0.7c0.2,0.5,0.2,1.1,0.2,1.7c0.5,0.2,0.9,0.3,1.2,0.3
		c0.5-1.2,0.7-2.5,0.7-3.9c0-4.8-3.2-8.9-7.6-10.3c0.8,0.7,1.1,1.9,0.9,2.8C15.6,7.4,13.7,9,9.9,9.9c-0.8,0.2-2.1,0.4-3.2,0.3
		c-1.3,3-2.2,6.1-2.9,9.3c2,2.4,4.9,3.9,8.3,3.9c4.5,0,8.3-2.7,9.9-6.6c-0.4,0-0.8-0.1-1.2-0.3C20.3,18.3,18.8,21.6,16.6,20.9z"/>
	<path class="st0" d="M19.5,14.1c-0.2,0.1-0.2,0.4-0.1,0.8c0.2,0.5,0.6,0.9,1.1,1.2c0.1-0.5,0-1.1-0.1-1.4
		C20.2,14.4,19.9,14,19.5,14.1z"/>
</g>
</svg>
