<?xml version="1.0" encoding="utf-8"?>
<!-- Generator: Adobe Illustrator 19.2.1, SVG Export Plug-In . SVG Version: 6.00 Build 0)  -->
<svg version="1.1" id="Layer_1" xmlns="http://www.w3.org/2000/svg" xmlns:xlink="http://www.w3.org/1999/xlink" x="0px" y="0px"
	 viewBox="0 0 155.9 35.7" style="enable-background:new 0 0 155.9 35.7;" xml:space="preserve">
<style type="text/css">
	.st0{fill:#60A9AB;}
</style>
<g>
	<path class="st0" d="M9.3,19.8l-0.9,1.7V27H5.5V8.8h2.9v7.9h0.1l3.7-7.9H15l-4,8.1L15,27h-2.9L9.3,19.8z"/>
	<path class="st0" d="M19.7,16.5h3.9v2.6h-3.9v5.3h5V27h-7.8V8.8h7.8v2.6h-5V16.5z"/>
	<path class="st0" d="M27,8.8h2.9v15.6h4.7V27H27V8.8z"/>
	<path class="st0" d="M40.2,8.6c2.8,0,4.2,1.7,4.2,4.6v0.6h-2.7V13c0-1.3-0.5-1.8-1.4-1.8c-0.9,0-1.4,0.5-1.4,1.8
		c0,1.3,0.6,2.3,2.5,4c2.4,2.1,3.2,3.6,3.2,5.7c0,2.9-1.5,4.6-4.3,4.6c-2.8,0-4.3-1.7-4.3-4.6v-1.1h2.7v1.3c0,1.3,0.6,1.8,1.5,1.8
		c0.9,0,1.5-0.5,1.5-1.8c0-1.3-0.6-2.3-2.5-4c-2.4-2.1-3.2-3.6-3.2-5.7C35.9,10.3,37.4,8.6,40.2,8.6z"/>
	<path class="st0" d="M49.4,16.5h3.9v2.6h-3.9v5.3h5V27h-7.8V8.8h7.8v2.6h-5V16.5z"/>
	<path class="st0" d="M59.4,21L55.8,8.8h3l2.2,8.3H61l2.2-8.3h2.7L62.2,21v6h-2.9V21z"/>
	<path class="st0" d="M78.5,17.3L78.5,17.3L77.4,27h-3.9l-2-18.2h2.8l1.5,14.4h0.1l1.4-14.4h2.8l1.4,14.5h0.1l1.5-14.5h2.5l-2,18.2
		h-3.8L78.5,17.3z"/>
	<path class="st0" d="M87.3,8.8h2.9V27h-2.9V8.8z"/>
	<path class="st0" d="M92.8,8.8h2.9v15.6h4.7V27h-7.6V8.8z"/>
	<path class="st0" d="M102.1,8.8h2.9v15.6h4.7V27h-7.6V8.8z"/>
	<path class="st0" d="M111.5,8.8h2.9V27h-2.9V8.8z"/>
	<path class="st0" d="M126.2,27h-2.9l-0.5-3.3h-3.5l-0.5,3.3h-2.6l2.9-18.2h4.2L126.2,27z M119.7,21.3h2.8l-1.4-9.2h-0.1L119.7,21.3
		z"/>
	<path class="st0" d="M134.1,21.8L134.1,21.8l2-13h4V27h-2.7V14h-0.1L135.4,27h-2.7l-2.1-12.9h-0.1V27h-2.5V8.8h4L134.1,21.8z"/>
	<path class="st0" d="M146.6,8.6c2.8,0,4.2,1.7,4.2,4.6v0.6h-2.7V13c0-1.3-0.5-1.8-1.4-1.8c-0.9,0-1.4,0.5-1.4,1.8
		c0,1.3,0.6,2.3,2.5,4c2.4,2.1,3.2,3.6,3.2,5.7c0,2.9-1.5,4.6-4.3,4.6c-2.8,0-4.3-1.7-4.3-4.6v-1.1h2.7v1.3c0,1.3,0.6,1.8,1.5,1.8
		c0.9,0,1.5-0.5,1.5-1.8c0-1.3-0.6-2.3-2.5-4c-2.4-2.1-3.2-3.6-3.2-5.7C142.4,10.3,143.8,8.6,146.6,8.6z"/>
</g>
</svg>
